<?xml version="1.0" encoding="utf-8"?>
<!-- Generator: Adobe Illustrator 16.0.0, SVG Export Plug-In . SVG Version: 6.00 Build 0)  -->
<!DOCTYPE svg PUBLIC "-//W3C//DTD SVG 1.1//EN" "http://www.w3.org/Graphics/SVG/1.1/DTD/svg11.dtd">
<svg version="1.1" id="Layer_1" xmlns="http://www.w3.org/2000/svg" xmlns:xlink="http://www.w3.org/1999/xlink" x="0px" y="0px"
	  viewBox="0 0 100 100" enable-background="new 0 0 100 100" xml:space="preserve">
<g>
	<circle cx="76.824" cy="42.73" r="9.615"/>
	<path d="M82.885,54.769h-12.12c-2.129,0-4.125,0.552-5.863,1.517c4.229,2.1,7.43,5.947,8.659,10.601H95
		C95,60.193,89.573,54.769,82.885,54.769z"/>
	<circle cx="23.176" cy="42.73" r="9.615"/>
	<path d="M35.099,56.285c-1.738-0.965-3.735-1.517-5.864-1.517H17.117C10.425,54.769,5,60.193,5,66.886h21.439
		C27.669,62.232,30.869,58.385,35.099,56.285z"/>
	<circle cx="50" cy="40.913" r="12.02"/>
	<path d="M57.574,57.367H42.427c-7.576,0-13.74,6.164-13.74,13.739h42.625C71.313,63.531,65.149,57.367,57.574,57.367z"/>
</g>
</svg>
